<?xml version="1.0" encoding="utf-8"?>
<!-- Generator: Adobe Illustrator 19.1.1, SVG Export Plug-In . SVG Version: 6.00 Build 0)  -->
<svg version="1.1" id="Calque_1" xmlns="http://www.w3.org/2000/svg" xmlns:xlink="http://www.w3.org/1999/xlink" x="0px" y="0px"
	 viewBox="0 0 180 180" style="enable-background:new 0 0 180 180;" xml:space="preserve">
<style type="text/css">
	.st0{fill:#CACECB;}
	.st1{fill:#282B29;}
	.st2{fill:#B3BCB6;}
	.st3{fill:#F0FCF4;}
</style>
<g>
	<g>
		<path class="st0" d="M91.8,65.1c2.7-4.3,2.3-8.3,1.1-13c-1.2-4.8,1.2-7.1,4.3-10.3c3.3-3.4-3.3-11-6.5-7.6c-2.9,3-5.8,5.7-6.6,10
			c-0.9,5.3,3,9.8,0,14.7C81.8,62.7,89.1,69.4,91.8,65.1L91.8,65.1z"/>
	</g>
</g>
<circle class="st1" cx="88" cy="101" r="41.3"/>
<rect x="64" y="57" class="st2" width="48" height="10"/>
<rect x="96" y="57" class="st3" width="16" height="10"/>
<path class="st0" d="M127.8,103.8c0,9.5-5.1,17-13.1,17s-1.7-7.6-1.7-17s-4.7-22.2,3.3-22.2S127.8,94.4,127.8,103.8z"/>
</svg>
