<?xml version="1.0" encoding="utf-8"?>
<!-- Generator: Adobe Illustrator 19.1.1, SVG Export Plug-In . SVG Version: 6.00 Build 0)  -->
<svg version="1.1" id="Calque_1" xmlns="http://www.w3.org/2000/svg" xmlns:xlink="http://www.w3.org/1999/xlink" x="0px" y="0px"
	 viewBox="0 0 180 180" style="enable-background:new 0 0 180 180;" xml:space="preserve">
<style type="text/css">
	.st0{fill:#F93B00;}
	.st1{fill:#F84C00;}
	.st2{fill:#FF8A3B;}
	.st3{fill:#FFE600;}
</style>
<path class="st0" d="M130.6,121.8c-1.7,2.2-18.4,23.4-41.8,21.5c-9-0.7-15.6-4.5-18.1-6.1C61,131.4,53.8,121.9,49,109
	c-5.2-13.9-2.2-38.2-3-46.7c4.5,8.7,7.5,12.5,9.1,12.3c0.6-0.1,2.9-18.7,3.2-22.6c8.7,14,16.7,12.4,23,9c4.3-2.3,5-16.4,12.5-31.7
	c-4.6,9.4-1.3,28.7,9.5,29.3c4.5,0.4,12.3-4.9,20-15.3c-1.3,13.9-1,25.5,3.5,27.2c4,1.4,2.6-7.4,6.1-6.2
	C123.7,96.7,140,109.5,130.6,121.8z"/>
<path class="st0" d="M79.3,63c4.3-2.3,5-16.4,12.5-31.7c-4.6,9.4-1.3,28.7,9.5,29.3c4.5,0.4,12.3-4.9,20-15.3
	c-1.3,13.9-1,25.5,3.5,27.2c4,1.4-9.4,0.2-5.9,1.5c-11.3,39.3,26.4,27.9,9.6,49.8c-1.7,2.2-18.4,23.4-41.8,21.5
	c-9-0.7-15.6-4.5-18.1-6.1C59,133.4,51.8,123.9,47,111c-5.2-13.9-2.2-38.2-3-46.7c4.5,8.7,7.5,12.5,9.1,12.3"/>
<path class="st1" d="M70,81.9c10.1-7,19.7-39.3,24-50c-3.6,10-2,32.1-0.5,32.2c4.5,0.4,1.9-11.3,9.6-21.7c-1.3,13.9,16.4,30,21,31.6
	c4,1.4,6.3-7.6,11.9-18.6c2.3,11,12.4,50.5-4.4,72.5c-1.7,2.2-18.4,23.4-41.8,21.5c-9-0.7-15.6-4.5-18.1-6.1
	C62,137.4,54.8,127.9,50,115c-5.2-13.9-2.2-38.2-3-46.7c4.5,8.7,5.2,11.3,9.1,12.3C59.6,82,65.5,85,70,81.9z"/>
<path class="st2" d="M117.3,100.2c-5.4,18.8,2.9,20.4-5.1,30.9c-0.8,1.1-8.8,11.2-20,10.3c-4.3-0.3-7.5-2.2-8.7-2.9
	c-4.6-2.8-8.1-7.4-10.4-13.5c-2.5-6.7-1.1-18.3-1.4-22.4c2.2,4.2,3.6,6,4.4,5.9c0.3,0,3.6-5.9,3.8-7.8c4.2,6.7,4.9,4.6,2.4-3.5
	c-1.9-6.1,3.4,6.4,6.4,4.8c2.1-1.1,2.4-7.9,6-15.2c-2.2,4.5,0.9,22.6,6.1,22.9"/>
<path class="st3" d="M98.3,124.7"/>
<path class="st3" d="M109.3,120.3c-1.1,2.3-1.3,4.3-1.3,5.6c0,2.3,0.7,3.5,0.3,5.4c-0.2,1-0.9,2-2.3,3.3c-0.5,0.5-5.8,5.2-13.2,4.8
	c-2.8-0.2-4.9-1-5.7-1.4c-3.1-1.3-5.3-3.4-6.9-6.3c-1.7-3.1-0.7-8.5-0.9-10.4c0.7,1.3,1.8,2.8,2.9,2.7c1.3-0.1,1.9-2.6,2.5-3.6
	c1.1-2,4.7,3.1,13.8,4.2C101.4,125.1,104.9,119.3,109.3,120.3z"/>
<path class="st0" d="M58.3,52"/>
</svg>
