<?xml version="1.0" encoding="utf-8"?>
<!-- Generator: Adobe Illustrator 19.1.1, SVG Export Plug-In . SVG Version: 6.00 Build 0)  -->
<svg version="1.1" id="Calque_1" xmlns="http://www.w3.org/2000/svg" xmlns:xlink="http://www.w3.org/1999/xlink" x="0px" y="0px"
	 viewBox="0 0 180 180" style="enable-background:new 0 0 180 180;" xml:space="preserve">
<style type="text/css">
	.st0{fill:#646665;}
	.st1{fill:#C3D8CD;}
	.st2{fill:#EDE9E2;}
	.st3{fill:#F9E6B4;}
	.st4{fill:#BBBFBE;}
	.st5{fill:#7F7F78;}
	.st6{fill:#8C8C85;}
	.st7{fill:#EFEFEF;}
	.st8{fill:#ACB7B1;}
	.st9{fill:#F2F1F0;}
</style>
<path class="st0" d="M101.1,160c0-6.8,4.6-12.3,10.3-12.3c5.7,0,10.3,5.5,10.3,12.3c0,3.2,5.6,11.3,4,13.4
	c-1.9,2.5-11.2-1.1-14.3-1.1c-2.7,0-5.2-1.2-7-3.3C102.4,166.8,101.1,163.6,101.1,160z"/>
<path class="st0" d="M77,160c0-6.8-4.6-12.3-10.3-12.3s-10.3,5.5-10.3,12.3c0,3.2-5.6,11.3-4,13.4c1.9,2.5,11.2-1.1,14.3-1.1
	c2.7,0,5.2-1.2,7-3.3C75.7,166.8,77,163.6,77,160z"/>
<ellipse class="st1" cx="107.6" cy="147.7" rx="15.2" ry="15.3"/>
<ellipse class="st1" cx="71.6" cy="147.7" rx="15.2" ry="15.3"/>
<path class="st2" d="M122.1,119.7c0-5.8,8.6-25.6,3.9-29.7c-5.9-5.2-26.3,6-36.3,6c-10.9,0-31.5-11.7-37.4-5.7
	c-3.8,3.9,5,24.3,5,29.4c0,13.1,14.5,23.7,32.4,23.7S122.1,132.8,122.1,119.7z"/>
<ellipse class="st2" cx="89.7" cy="95.7" rx="37.3" ry="23.7"/>
<rect x="137" y="147.7" transform="matrix(0.949 -0.3152 0.3152 0.949 -41.4035 51.9808)" class="st0" width="6.1" height="12.7"/>
<path class="st1" d="M147.4,86.6c3.6,9.9,2.5,25.1-4.8,27.8c-7.3,2.6-11.4-4.9-15-14.8c-3.6-9.9-5.3-18.3,2-21
	C136.9,76,143.8,76.7,147.4,86.6z"/>
<path class="st1" d="M32.6,86.6c-3.6,9.9-2.5,25.1,4.8,27.8s11.4-4.9,15-14.8c3.6-9.9,5.3-18.3-2-21C43.1,76,36.2,76.7,32.6,86.6z"
	/>
<path class="st0" d="M130.3,78c0,13.1-17.5,7.6-39,7.6s-39,5.5-39-7.6s17.5-23.7,39-23.7S130.3,64.9,130.3,78z"/>
<ellipse class="st3" cx="90.3" cy="46.3" rx="31" ry="32.3"/>
<path class="st0" d="M122,37.7C122,50,107.8,60,90.3,60S58.7,50,58.7,37.7S72.8,4.3,90.3,4.3S122,25.3,122,37.7z"/>
<path class="st4" d="M122,37.7C122,50,108,60,90,60c0-10.7,0-37,0-55.7C108,4.3,122,25.3,122,37.7z"/>
<path class="st5" d="M122,40.2c0,10.8-14.2,20.2-31.7,20.2S58.7,51,58.7,40.2c0-5.8,15.6,13,31.3,13C105.9,53.1,122,34.2,122,40.2z"
	/>
<path class="st6" d="M90.8,53.1c15.9,0,31.2-18.8,31.2-12.9c0,10.8-14.2,20.2-31.7,20.2"/>
<path class="st4" d="M90.8,54.6c17.5-0.3,31.5-7.7,31.4-16c-0.1-4.5-15.4,10.2-31.2,10.5"/>
<path class="st0" d="M90.3,54.3c-17.5,0-31.7-7.1-31.7-15.5c0-4.5,15.6,9.9,31.3,9.9"/>
<rect x="87" y="1.7" class="st5" width="6.3" height="52.7"/>
<rect x="90.3" y="1.7" class="st6" width="3" height="58.3"/>
<circle class="st6" cx="96.3" cy="46" r="1.6"/>
<circle class="st6" cx="96.3" cy="36" r="1.6"/>
<circle class="st6" cx="96.3" cy="26" r="1.6"/>
<circle class="st5" cx="84.3" cy="46" r="1.6"/>
<circle class="st5" cx="84.3" cy="36" r="1.6"/>
<circle class="st5" cx="84.3" cy="26" r="1.6"/>
<path class="st7" d="M116.5,32.2c-0.3-0.8-2.5-6.3-5.8-11.5c-3.7-5.8-8.4-11.4-7.7-11.5c4-0.1,14.2,15.1,15.5,19.1"/>
<path class="st7" d="M58.5,68.3c1.9,4.3-2.3,6.1-2.8,12C55.6,81.8,44,80.3,42.4,81c-8.7,3.8-8.6,7.2-11,1.9S34.2,70.2,43,66.3
	S56.2,62.9,58.5,68.3z"/>
<path class="st8" d="M55.9,70.3c1.6,3.6-2.2,5.2-2.8,10.1c-0.2,1.3-10.5,0.4-11.9,1c-7.9,3.5-7.9,6.3-9.8,1.9s2.9-10.7,10.8-14.1
	S54,65.9,55.9,70.3z"/>
<path class="st7" d="M121.4,68.3c-1.9,4.3,2.3,6.1,2.8,12c0.1,1.6,11.8,0.1,13.4,0.8c8.7,3.8,8.6,7.2,11,1.9s-2.8-12.7-11.5-16.6
	S123.7,62.9,121.4,68.3z"/>
<path class="st8" d="M124,70.3c-1.6,3.6,2.2,5.2,2.8,10.1c0.2,1.3,10.5,0.4,11.9,1c7.9,3.5,7.9,6.3,9.8,1.9s-2.9-10.7-10.8-14.1
	C129.9,65.7,125.9,65.9,124,70.3z"/>
<path class="st1" d="M49.3,123.3c0,7.5-4.7,20.3-10.2,20.3s-6.8-14.5-6.8-22c0-7.5,1.6-10.7,7.1-10.7S49.3,115.9,49.3,123.3z"/>
<path class="st1" d="M130.3,123.3c0,7.5,4.7,20.3,10.2,20.3s6.8-14.5,6.8-22c0-7.5-1.6-10.7-7.1-10.7S130.3,115.9,130.3,123.3z"/>
<ellipse class="st8" cx="33.2" cy="113" rx="4.2" ry="7"/>
<ellipse class="st8" cx="145.2" cy="113" rx="4.2" ry="7"/>
<polygon class="st2" points="123.9,86 112.8,71.5 113.5,89.3 128.9,137.6 139.2,134.3 "/>
<polygon class="st9" points="123.9,86 112.8,71.5 134.5,135.4 139.2,134.3 "/>
<path class="st3" d="M46.3,143.3c0,4.1-0.9,7.3-5.3,7.3s-8-3.3-8-7.3c0-4.1,3.6-7.3,8-7.3S46.3,139.3,46.3,143.3z"/>
<path class="st3" d="M130.9,145.4c1.3,3.8,3.2,6.7,7.4,5.3c4.2-1.4,6.6-5.6,5.3-9.5c-1.3-3.8-5.7-5.8-9.9-4.4
	C129.4,138.2,129.6,141.6,130.9,145.4z"/>
<rect x="124.2" y="135.6" transform="matrix(0.949 -0.3152 0.3152 0.949 -36.4971 49.4204)" class="st0" width="20.8" height="4"/>
</svg>
