<?xml version="1.0" encoding="utf-8"?>
<!-- Generator: Adobe Illustrator 19.1.1, SVG Export Plug-In . SVG Version: 6.00 Build 0)  -->
<svg version="1.1" id="Calque_1" xmlns="http://www.w3.org/2000/svg" xmlns:xlink="http://www.w3.org/1999/xlink" x="0px" y="0px"
	 viewBox="-359 361 180 180" style="enable-background:new -359 361 180 180;" xml:space="preserve">
<style type="text/css">
	.st0{fill:#082C4F;}
	.st1{fill:#E4E6EA;}
	.st2{clip-path:url(#SVGID_2_);}
	.st3{fill:#F0F0F0;}
	.st4{fill:#D80027;}
	.st5{fill:#0052B4;}
	.st6{fill:#F9E6B4;}
	.st7{fill:#CACBCC;}
	.st8{fill:#8C8C85;}
	.st9{fill:#7F7F78;}
	.st10{fill:#F21141;}
	.st11{fill:#EFEFEF;}
	.st12{fill:#EDE9E2;}
	.st13{fill:#F2F1F0;}
</style>
<path class="st0" d="M-257.9,521c0-6.8,4.6-12.3,10.3-12.3c5.7,0,10.3,5.5,10.3,12.3c0,3.2,5.6,11.3,4,13.4
	c-1.9,2.5-11.2-1.1-14.3-1.1c-2.7,0-5.2-1.2-7-3.3C-256.6,527.8-257.9,524.6-257.9,521z"/>
<path class="st0" d="M-282,521c0-6.8-4.6-12.3-10.3-12.3c-5.7,0-10.3,5.5-10.3,12.3c0,3.2-5.6,11.3-4,13.4
	c1.9,2.5,11.2-1.1,14.3-1.1c2.7,0,5.2-1.2,7-3.3C-283.3,527.8-282,524.6-282,521z"/>
<ellipse class="st1" cx="-251.4" cy="508.7" rx="15.2" ry="15.3"/>
<ellipse class="st1" cx="-287.4" cy="508.7" rx="15.2" ry="15.3"/>
<g id="Calque_2">
	<defs>
		<path id="SVGID_1_" d="M-235.9,480.7c0-5.8,8.6-28.9,3.9-33c-5.9-5.2-29-9.4-39-9.4c-10.9,0-28.8,3.4-34.7,9.4
			c-3.8,3.9,5,27.9,5,33c0,13.1,14.5,23.7,32.4,23.7C-250.4,504.4-235.9,493.8-235.9,480.7z"/>
	</defs>
	<clipPath id="SVGID_2_">
		<use xlink:href="#SVGID_1_"  style="overflow:visible;"/>
	</clipPath>
	<g class="st2">
		<ellipse class="st3" cx="-266.4" cy="474.2" rx="47.1" ry="43.5"/>
		<g>
			<path class="st4" d="M-268.5,474.2h49.1c0-3.9-0.6-7.7-1.6-11.3h-47.5V474.2z"/>
			<path class="st4" d="M-268.5,451.5h42.2c-2.9-4.3-6.6-8.2-10.9-11.3h-31.4V451.5z"/>
			<path class="st4" d="M-266.4,517.7c11.1,0,21.3-3.5,29.3-9.5h-58.6C-287.7,514.2-277.5,517.7-266.4,517.7z"/>
			<path class="st4" d="M-306.6,496.9h80.4c2.3-3.5,4.1-7.3,5.3-11.3h-90.9C-310.7,489.6-308.9,493.4-306.6,496.9z"/>
		</g>
		<path class="st5" d="M-291.7,437.5h4.3l-4,2.7l1.5,4.3l-4-2.7l-4,2.7l1.3-3.7c-3.5,2.7-6.6,5.9-9.1,9.4h1.4l-2.5,1.7
			c-0.4,0.6-0.8,1.2-1.1,1.9l1.2,3.4l-2.3-1.5c-0.6,1.1-1.1,2.2-1.5,3.4l1.3,3.8h4.9l-4,2.7l1.5,4.3l-4-2.7l-2.4,1.6
			c-0.2,1.8-0.4,3.6-0.4,5.4h47.1c0-24,0-26.8,0-43.5C-275.7,430.7-284.4,433.2-291.7,437.5z M-289.9,469.9l-4-2.7l-4,2.7l1.5-4.3
			l-4-2.7h4.9l1.5-4.3l1.5,4.3h4.9l-4,2.7L-289.9,469.9z M-291.4,452.9l1.5,4.3l-4-2.7l-4,2.7l1.5-4.3l-4-2.7h4.9l1.5-4.3l1.5,4.3
			h4.9L-291.4,452.9z M-273,469.9l-4-2.7l-4,2.7l1.5-4.3l-4-2.7h4.9l1.5-4.3l1.5,4.3h4.9l-4,2.7L-273,469.9z M-274.5,452.9l1.5,4.3
			l-4-2.7l-4,2.7l1.5-4.3l-4-2.7h4.9l1.5-4.3l1.5,4.3h4.9L-274.5,452.9z M-274.5,440.2l1.5,4.3l-4-2.7l-4,2.7l1.5-4.3l-4-2.7h4.9
			l1.5-4.3l1.5,4.3h4.9L-274.5,440.2z"/>
		<g>
		</g>
		<g>
		</g>
		<g>
		</g>
		<g>
		</g>
		<g>
		</g>
		<g>
		</g>
		<g>
		</g>
		<g>
		</g>
		<g>
		</g>
		<g>
		</g>
		<g>
		</g>
		<g>
		</g>
		<g>
		</g>
		<g>
		</g>
		<g>
		</g>
	</g>
</g>
<rect x="-222" y="508.7" transform="matrix(-0.949 0.3152 -0.3152 -0.949 -264.3766 1072.8175)" class="st0" width="6.1" height="12.7"/>
<path class="st1" d="M-211.6,447.6c3.6,9.9,2.5,25.1-4.8,27.8c-7.3,2.6-11.4-4.9-15-14.8c-3.6-9.9-5.3-18.3,2-21
	C-222.1,437-215.2,437.7-211.6,447.6z"/>
<path class="st1" d="M-326.4,447.6c-3.6,9.9-2.5,25.1,4.8,27.8c7.3,2.7,11.4-4.9,15-14.8c3.6-9.9,5.3-18.3-2-21
	C-315.9,437-322.8,437.7-326.4,447.6z"/>
<path class="st5" d="M-228.7,439c0,13.1-17.5,7.6-39,7.6s-39,5.5-39-7.6s17.5-23.7,39-23.7S-228.7,425.9-228.7,439z"/>
<ellipse class="st6" cx="-268.7" cy="407.3" rx="31" ry="32.3"/>
<path class="st5" d="M-237,398.7c0,12.3-14.2,22.3-31.7,22.3s-31.6-10-31.6-22.3c0-12.3,14.1-33.4,31.6-33.4S-237,386.3-237,398.7z"
	/>
<path class="st4" d="M-237,398.7c0,12.3-14,22.3-32,22.3c0-10.7,0-37,0-55.7C-251,365.3-237,386.3-237,398.7z"/>
<path class="st1" d="M-237,401.2c0,10.8-14.2,20.2-31.7,20.2s-31.6-9.4-31.6-20.2c0-5.8,15.6,13,31.3,13
	C-253.1,414.1-237,395.2-237,401.2z"/>
<path class="st7" d="M-268.2,414.1c15.9,0,31.2-18.8,31.2-12.9c0,10.8-14.2,20.2-31.7,20.2"/>
<path class="st4" d="M-268.2,415.6c17.5-0.3,31.5-7.7,31.4-16c-0.1-4.5-15.4,10.2-31.2,10.5"/>
<path class="st5" d="M-268.7,415.3c-17.5,0-31.7-7.1-31.7-15.5c0-4.5,15.6,9.9,31.3,9.9"/>
<rect x="-272" y="362.7" class="st1" width="6.3" height="52.7"/>
<rect x="-268.7" y="362.7" class="st1" width="3" height="58.3"/>
<circle class="st8" cx="-262.7" cy="407" r="1.6"/>
<circle class="st8" cx="-262.7" cy="397" r="1.6"/>
<circle class="st8" cx="-262.7" cy="387" r="1.6"/>
<circle class="st9" cx="-274.7" cy="407" r="1.6"/>
<circle class="st9" cx="-274.7" cy="397" r="1.6"/>
<circle class="st9" cx="-274.7" cy="387" r="1.6"/>
<path class="st10" d="M-242.5,393.2c-0.3-0.8-2.5-6.3-5.8-11.5c-3.7-5.8-8.4-11.4-7.7-11.5c4-0.1,14.2,15.1,15.5,19.1"/>
<path class="st11" d="M-300.5,429.3c1.9,4.3-2.3,6.1-2.8,12c-0.1,1.5-11.7,0-13.3,0.7c-8.7,3.8-8.6,7.2-11,1.9
	c-2.4-5.3,2.8-12.7,11.6-16.6C-307.2,423.4-302.8,423.9-300.5,429.3z"/>
<path class="st4" d="M-303.1,431.3c1.6,3.6-2.2,5.2-2.8,10.1c-0.2,1.3-10.5,0.4-11.9,1c-7.9,3.5-7.9,6.3-9.8,1.9
	c-1.9-4.4,2.9-10.7,10.8-14.1C-308.9,426.8-305,426.9-303.1,431.3z"/>
<path class="st11" d="M-237.6,429.3c-1.9,4.3,2.3,6.1,2.8,12c0.1,1.6,11.8,0.1,13.4,0.8c8.7,3.8,8.6,7.2,11,1.9s-2.8-12.7-11.5-16.6
	C-230.6,423.5-235.3,423.9-237.6,429.3z"/>
<path class="st4" d="M-235,431.3c-1.6,3.6,2.2,5.2,2.8,10.1c0.2,1.3,10.5,0.4,11.9,1c7.9,3.5,7.9,6.3,9.8,1.9
	c1.9-4.4-2.9-10.7-10.8-14.1C-229.1,426.7-233.1,426.9-235,431.3z"/>
<path class="st1" d="M-309.7,484.3c0,7.5-4.7,20.3-10.2,20.3s-6.8-14.5-6.8-22s1.6-10.7,7.1-10.7S-309.7,476.9-309.7,484.3z"/>
<path class="st1" d="M-228.7,484.3c0,7.5,4.7,20.3,10.2,20.3s6.8-14.5,6.8-22s-1.6-10.7-7.1-10.7S-228.7,476.9-228.7,484.3z"/>
<ellipse class="st4" cx="-325.8" cy="474" rx="4.2" ry="7"/>
<ellipse class="st4" cx="-213.8" cy="474" rx="4.2" ry="7"/>
<polygon class="st12" points="-235.1,447 -246.2,432.5 -245.5,450.3 -230.1,498.6 -219.8,495.3 "/>
<polygon class="st13" points="-235.1,447 -246.2,432.5 -224.5,496.4 -219.8,495.3 "/>
<path class="st6" d="M-312.7,504.3c0,4.1-0.9,7.3-5.3,7.3s-8-3.3-8-7.3c0-4.1,3.6-7.3,8-7.3S-312.7,500.3-312.7,504.3z"/>
<path class="st6" d="M-228.1,506.4c1.3,3.8,3.2,6.7,7.4,5.3c4.2-1.4,6.6-5.6,5.3-9.5c-1.3-3.8-5.7-5.8-9.9-4.4
	C-229.6,499.2-229.4,502.6-228.1,506.4z"/>
<rect x="-234.8" y="496.6" transform="matrix(-0.949 0.3152 -0.3152 -0.949 -280.1864 1042.4672)" class="st0" width="20.8" height="4"/>
</svg>
