<?xml version="1.0" encoding="utf-8"?>
<!-- Generator: Adobe Illustrator 19.1.1, SVG Export Plug-In . SVG Version: 6.00 Build 0)  -->
<svg version="1.1" id="Calque_1" xmlns="http://www.w3.org/2000/svg" xmlns:xlink="http://www.w3.org/1999/xlink" x="0px" y="0px"
	 viewBox="0 0 180 180" style="enable-background:new 0 0 180 180;" xml:space="preserve">
<style type="text/css">
	.st0{fill:none;}
	.st1{fill:#768E9B;}
	.st2{fill:none;stroke:#9EACB7;stroke-miterlimit:10;}
	.st3{fill:url(#Wall);}
</style>
<pattern  width="48.3" height="49" patternUnits="userSpaceOnUse" id="Wall" viewBox="0 -49 48.3 49" style="overflow:visible;">
	<g>
		<polygon class="st0" points="0,-49 48.3,-49 48.3,0 0,0 		"/>
		<polygon class="st1" points="48.3,-0.7 0,-0.7 0,-49 48.3,-49 		"/>
		<line class="st2" x1="0" y1="-44.5" x2="48" y2="-44.5"/>
		<line class="st2" x1="15.5" y1="-45" x2="15.5" y2="-49"/>
		<line class="st2" x1="31.5" y1="-45" x2="31.5" y2="-49"/>
		<line class="st2" x1="0" y1="-40.5" x2="48" y2="-40.5"/>
		<line class="st2" x1="7.5" y1="-41" x2="7.5" y2="-45"/>
		<line class="st2" x1="23.5" y1="-41" x2="23.5" y2="-45"/>
		<line class="st2" x1="37.5" y1="-41" x2="37.5" y2="-45"/>
		<line class="st2" x1="0" y1="-36.5" x2="48" y2="-36.5"/>
		<line class="st2" x1="12.5" y1="-37" x2="12.5" y2="-41"/>
		<line class="st2" x1="28.5" y1="-37" x2="28.5" y2="-41"/>
		<line class="st2" x1="0" y1="-32.5" x2="48" y2="-32.5"/>
		<line class="st2" x1="4.5" y1="-33" x2="4.5" y2="-37"/>
		<line class="st2" x1="20.5" y1="-33" x2="20.5" y2="-37"/>
		<line class="st2" x1="34.5" y1="-33" x2="34.5" y2="-37"/>
		<line class="st2" x1="48" y1="-28.5" x2="0" y2="-28.5"/>
		<line class="st2" x1="32.5" y1="-29" x2="32.5" y2="-33"/>
		<line class="st2" x1="16.5" y1="-29" x2="16.5" y2="-33"/>
		<line class="st2" x1="48" y1="-24.5" x2="0" y2="-24.5"/>
		<line class="st2" x1="40.5" y1="-25" x2="40.5" y2="-29"/>
		<line class="st2" x1="24.5" y1="-25" x2="24.5" y2="-29"/>
		<line class="st2" x1="10.5" y1="-25" x2="10.5" y2="-29"/>
		<line class="st2" x1="48" y1="-20.5" x2="0" y2="-20.5"/>
		<line class="st2" x1="35.5" y1="-21" x2="35.5" y2="-25"/>
		<line class="st2" x1="19.5" y1="-21" x2="19.5" y2="-25"/>
		<line class="st2" x1="48" y1="-16.5" x2="0" y2="-16.5"/>
		<line class="st2" x1="43.5" y1="-17" x2="43.5" y2="-21"/>
		<line class="st2" x1="27.5" y1="-17" x2="27.5" y2="-21"/>
		<line class="st2" x1="13.5" y1="-17" x2="13.5" y2="-21"/>
		<line class="st2" x1="0" y1="-12.5" x2="48" y2="-12.5"/>
		<line class="st2" x1="16.5" y1="-13" x2="16.5" y2="-17"/>
		<line class="st2" x1="32.5" y1="-13" x2="32.5" y2="-17"/>
		<line class="st2" x1="0" y1="-8.5" x2="48" y2="-8.5"/>
		<line class="st2" x1="8.5" y1="-9" x2="8.5" y2="-13"/>
		<line class="st2" x1="24.5" y1="-9" x2="24.5" y2="-13"/>
		<line class="st2" x1="38.5" y1="-9" x2="38.5" y2="-13"/>
		<line class="st2" x1="0" y1="-4.5" x2="48" y2="-4.5"/>
		<line class="st2" x1="13.5" y1="-5" x2="13.5" y2="-9"/>
		<line class="st2" x1="29.5" y1="-5" x2="29.5" y2="-9"/>
		<line class="st2" x1="5.5" y1="-1" x2="5.5" y2="-5"/>
		<line class="st2" x1="21.5" y1="-1" x2="21.5" y2="-5"/>
		<line class="st2" x1="35.5" y1="-1" x2="35.5" y2="-5"/>
		<line class="st2" x1="0" y1="-0.5" x2="48" y2="-0.5"/>
		<line class="st2" x1="0" y1="-48.5" x2="48" y2="-48.5"/>
	</g>
</pattern>
<rect class="st3" width="180" height="180"/>
</svg>
